<svg version="1.1" id="Layer_1" xmlns="http://www.w3.org/2000/svg" xmlns:xlink="http://www.w3.org/1999/xlink" x="0px" y="0px"
	 width="100%" viewBox="0 0 1024 1024" enable-background="new 0 0 1024 1024" xml:space="preserve">
<path fill="#222329" opacity="1.000000" stroke="none" 
	d="
M520.000000,1025.000000 
	C346.666656,1025.000000 173.833328,1025.000000 1.000000,1025.000000 
	C1.000000,683.666687 1.000000,342.333344 1.000000,1.000000 
	C342.333344,1.000000 683.666687,1.000000 1025.000000,1.000000 
	C1025.000000,342.333344 1025.000000,683.666687 1025.000000,1025.000000 
	C856.833313,1025.000000 688.666687,1025.000000 520.000000,1025.000000 
M506.926453,674.745300 
	C506.966217,675.497742 507.005981,676.250122 506.671112,677.684143 
	C504.749512,678.456665 502.829956,679.897522 500.905975,679.903503 
	C457.917542,680.037842 414.928650,680.009216 371.939819,680.037964 
	C370.127716,680.039185 368.315826,680.296143 366.503815,680.434021 
	C366.544220,680.781189 366.584625,681.128296 366.625031,681.475464 
	C475.311737,681.475464 583.998474,681.475464 694.023193,681.475464 
	C691.943054,679.061279 690.864258,677.640625 689.616516,676.388245 
	C680.923645,667.663269 672.108154,659.058960 663.494995,650.256470 
	C632.517761,618.598450 601.612854,586.869507 570.630859,555.216125 
	C569.672241,554.236755 568.165771,553.793701 566.815308,552.158691 
	C566.811157,549.159546 567.064148,546.132874 566.746155,543.167419 
	C566.187561,537.957214 568.427856,534.697693 573.245361,532.653320 
	C573.831543,533.200623 574.490662,533.693176 574.999451,534.309753 
	C581.464783,542.145020 587.829773,550.064697 594.388611,557.820557 
	C598.045227,562.144592 602.089661,562.636108 605.656189,559.615356 
	C609.267883,556.556396 609.078979,553.704041 605.063354,548.984619 
	C598.804260,541.628357 592.712646,534.124573 586.290649,526.914368 
	C583.524597,523.808838 583.989685,521.795593 586.820251,519.108093 
	C592.132385,514.064392 597.215332,508.767548 602.208130,503.403412 
	C605.401672,499.972412 604.635071,496.177521 600.495972,494.005646 
	C596.749023,492.039581 593.701416,492.963440 590.694214,496.025482 
	C582.964233,503.896362 574.964355,511.502197 566.703064,519.574890 
	C566.703064,517.598083 566.700806,515.844421 566.703369,514.090759 
	C566.723206,500.595184 566.806946,487.099243 566.737305,473.604156 
	C566.703918,467.127930 561.362610,463.544830 556.003784,466.278748 
	C552.557251,468.037079 551.965149,471.174194 551.972900,474.736938 
	C552.029175,500.562775 552.033813,526.388916 551.961609,552.214600 
	C551.950745,556.105469 552.103821,559.793640 556.659241,560.942627 
	C561.056152,562.051758 564.540527,560.644897 567.337708,556.293213 
	C571.671570,560.375610 576.149170,564.316956 580.316467,568.562744 
	C612.164734,601.010803 643.955078,633.515747 675.746887,666.019226 
	C676.713623,667.007568 677.498657,668.173523 678.368408,669.256714 
	C677.982056,669.783508 677.595764,670.310303 677.209412,670.837158 
	C623.165771,639.758484 569.122070,608.679810 515.078430,577.601135 
	C514.735229,578.191833 514.392029,578.782471 514.048828,579.373169 
	C571.057190,612.813660 628.489685,645.536499 685.603455,679.289062 
	C683.233643,679.960266 680.983704,679.960022 678.733704,679.960266 
	C638.410706,679.964905 598.087708,679.969666 557.764709,679.974243 
	C543.101746,679.975891 528.438843,679.967529 513.775879,679.988098 
	C511.428680,679.991394 508.919800,680.391724 508.792358,676.283142 
	C508.736084,675.857239 508.679840,675.431274 508.798981,674.311829 
	C508.742950,673.842346 508.686951,673.372864 508.740265,671.985779 
	C508.694397,643.025146 508.648529,614.064575 508.772125,584.417908 
	C508.359558,583.674133 507.946991,582.930359 507.534424,582.186584 
	C507.344452,583.125244 507.154449,584.063904 506.903351,585.937988 
	C506.917755,614.964233 506.932159,643.990540 506.870483,673.507629 
	C506.870483,673.507629 506.978729,673.992371 506.926453,674.745300 
M336.335541,582.863403 
	C336.280518,582.480774 336.225494,582.098145 336.283966,580.953918 
	C336.107635,580.133240 335.931305,579.312561 335.566864,577.616211 
	C335.049225,578.997925 334.745209,579.432190 334.743500,579.867615 
	C334.621460,610.911072 334.523529,641.954529 334.247467,673.817261 
	C334.405365,676.002869 334.563232,678.188477 334.816376,681.692871 
	C346.986633,675.807129 358.001740,670.479980 369.757751,665.022339 
	C382.811707,658.950012 395.921021,652.991760 408.872375,646.707947 
	C411.428986,645.467468 413.377380,642.973572 416.230652,640.989685 
	C436.737701,620.418030 457.244751,599.846375 477.751801,579.274719 
	C477.497925,578.841858 477.244080,578.408936 476.990204,577.976013 
	C472.230133,577.976013 467.435699,578.335205 462.718811,577.883972 
	C456.986542,577.335571 453.180847,579.698669 449.278961,583.689148 
	C434.958374,598.334961 420.278229,612.629761 405.661285,626.983337 
	C405.005981,627.626892 403.646393,627.553223 402.777313,626.978210 
	C401.672699,626.385071 400.537811,625.232910 399.468414,625.290833 
	C393.233673,625.627930 387.014252,626.249023 380.340729,626.812073 
	C380.859711,619.163086 381.339081,612.098267 382.468414,604.807983 
	C390.994110,596.255554 399.519806,587.703064 408.045502,579.150574 
	C400.153870,578.038391 393.047577,577.997925 385.942749,578.081970 
	C384.872925,578.094604 383.453583,578.359070 382.799377,579.065735 
	C376.737640,585.613464 370.808380,592.283936 364.238861,599.260010 
	C358.739624,614.838684 353.240417,630.417419 347.183929,646.369141 
	C344.513245,653.523987 341.932007,660.714722 339.093170,667.802185 
	C338.554199,669.147827 336.994751,670.084656 336.023315,670.361023 
	C336.014496,669.224670 336.005676,668.088379 336.272644,666.307556 
	C336.187744,664.200989 336.102814,662.094360 336.105316,659.330872 
	C336.073486,658.891296 336.041626,658.451660 336.278534,657.250916 
	C336.206818,642.461670 336.135101,627.672363 336.183502,612.146545 
	C336.151184,611.154602 336.118866,610.162720 336.405762,608.398010 
	C336.299347,603.197876 336.192932,597.997681 336.212036,591.933105 
	C336.178864,589.021362 336.145721,586.109619 336.335541,582.863403 
M336.198578,371.988251 
	C336.163574,369.696381 336.128571,367.404480 336.423920,364.562897 
	C336.321228,363.325623 336.218536,362.088348 336.218689,359.990997 
	C336.208618,357.683441 336.198547,355.375916 336.883270,352.990265 
	C338.536865,354.298340 340.378906,355.427979 341.813782,356.943207 
	C351.771484,367.458679 361.608887,378.088043 371.551880,388.617584 
	C396.351807,414.880463 421.161530,441.134216 446.037323,467.325165 
	C449.662415,471.141968 453.671478,474.594116 457.502869,478.214996 
	C457.872833,477.810211 458.242798,477.405457 458.612732,477.000671 
	C419.844116,436.074341 381.075470,395.148041 342.306824,354.221710 
	C342.624359,353.761169 342.941864,353.300598 343.259399,352.840057 
	C344.592804,353.173126 345.968994,353.388702 347.253235,353.856689 
	C370.088867,362.178955 392.898804,370.571960 415.743958,378.867981 
	C443.598145,388.983093 471.484528,399.009430 499.345886,409.104858 
	C504.973328,411.143982 505.155060,411.893799 502.104584,416.758820 
	C495.118042,427.901245 488.176636,439.072021 481.260468,450.258209 
	C480.730103,451.116058 480.541962,452.185486 480.194733,453.156555 
	C480.605072,453.389008 481.015442,453.621490 481.425781,453.853943 
	C489.225281,441.589203 497.024780,429.324493 504.824280,417.059753 
	C505.441895,417.187225 506.059509,417.314697 506.677124,417.442139 
	C506.677124,428.377502 506.677124,439.312866 506.677124,450.248199 
	C507.182709,450.253784 507.688263,450.259338 508.193848,450.264893 
	C508.412720,449.694244 508.820648,449.124207 508.822601,448.552795 
	C508.863403,436.559082 508.972412,424.562592 508.697021,412.575165 
	C508.667419,411.287506 506.573151,409.469666 505.056793,408.887756 
	C495.421936,405.190674 485.674255,401.788361 475.974823,398.258514 
	C430.134033,381.575806 384.298004,364.880035 338.451630,348.212769 
	C337.282562,347.787811 336.013641,347.637329 334.152435,347.213257 
	C334.352539,349.575378 334.502228,351.342133 334.456970,354.012451 
	C334.422852,361.670471 334.353394,369.328552 334.360779,376.986542 
	C334.391357,408.617950 334.445221,440.249329 334.265656,472.603760 
	C334.370667,473.837280 334.475677,475.070801 334.580688,476.304321 
	C335.139832,476.282288 335.698975,476.260223 336.258118,476.238159 
	C336.195068,474.821472 336.132019,473.404785 336.144012,471.115356 
	C336.126801,468.785126 336.109589,466.454895 336.437225,463.368896 
	C336.519073,462.712067 336.672089,462.055328 336.672546,461.398438 
	C336.692047,434.340271 336.704865,407.282135 336.680603,380.223999 
	C336.679596,379.093384 336.316589,377.963104 336.213776,376.169495 
	C336.185089,375.502014 336.156403,374.834564 336.365540,373.872192 
	C336.283844,373.529175 336.202118,373.186188 336.198578,371.988251 
M256.681152,499.680298 
	C256.749237,517.676941 256.878906,535.673767 256.843231,553.670227 
	C256.834045,558.315613 258.763550,560.956177 263.387512,561.417542 
	C268.398865,561.917664 271.817627,558.414795 271.820129,552.696594 
	C271.831360,527.032349 271.770050,501.368134 271.795227,475.703979 
	C271.799805,471.028168 271.024170,467.043243 265.670319,465.669708 
	C260.266510,464.283417 256.764069,465.768738 253.871582,471.272308 
	C248.527817,481.439911 243.294815,491.666595 238.103271,501.913055 
	C233.012680,511.960266 228.031097,522.062683 222.623962,532.897827 
	C221.169083,530.316345 220.102783,528.483154 219.091263,526.620300 
	C209.078751,508.181183 199.048325,489.751678 189.089722,471.283478 
	C186.824127,467.081909 183.885162,464.313202 178.741608,465.469757 
	C173.458435,466.657654 172.306549,470.571777 172.305527,475.323761 
	C172.299942,501.154419 172.223328,526.985046 172.220169,552.815735 
	C172.219482,558.484680 175.131714,561.451111 180.288864,561.318237 
	C184.933624,561.198547 187.140610,558.511658 187.140274,552.869507 
	C187.139297,535.871277 187.110092,518.873108 187.115616,501.874878 
	C187.115936,500.889099 187.326660,499.903381 187.539780,498.041077 
	C188.639038,499.897736 189.260834,500.871704 189.809128,501.885437 
	C197.808350,516.675232 205.848114,531.443481 213.756943,546.281555 
	C215.954865,550.405029 219.157303,553.288879 223.686127,551.805176 
	C226.597366,550.851440 229.703583,548.236084 231.176071,545.525513 
	C238.884796,531.335388 246.078308,516.865906 253.520599,502.529663 
	C254.201279,501.218445 255.374542,500.162933 256.681152,499.680298 
M624.097778,359.596222 
	C621.294067,362.439758 618.509766,365.302795 615.682617,368.122833 
	C609.795044,373.995636 609.768372,374.003815 615.865723,379.992706 
	C627.497253,391.417236 639.141479,402.828796 650.801208,414.224487 
	C653.597107,416.957092 656.474548,419.606354 660.474487,423.391724 
	C667.028748,416.294891 673.111206,409.704559 679.201233,403.121277 
	C679.878784,402.388794 680.636353,401.728668 681.294861,400.980469 
	C689.075562,392.139557 689.693726,379.162201 681.870239,370.374176 
	C675.589722,363.319244 668.764954,356.590576 661.357788,350.764740 
	C657.754822,347.931000 652.344116,346.547241 647.617676,346.164917 
	C637.384583,345.337189 630.894775,352.295227 624.097778,359.596222 
M509.071503,466.618011 
	C505.256500,466.816040 501.366119,466.603546 497.640350,467.287628 
	C485.537231,469.509796 476.912384,478.551758 475.921082,489.588837 
	C474.758392,502.534821 480.276733,511.471466 492.778442,516.447205 
	C496.468933,517.916077 500.396149,518.779907 504.177490,520.033752 
	C508.743622,521.547791 513.489746,522.738708 517.766296,524.859253 
	C525.826416,528.855896 526.754150,538.764404 520.121704,544.773438 
	C512.666809,551.527649 491.976929,550.986389 488.108948,537.364502 
	C486.969604,533.352051 484.486847,531.462219 480.321289,532.321411 
	C476.249817,533.161255 474.066223,536.502014 474.549896,540.928894 
	C475.290741,547.709290 478.750824,552.986633 484.497101,556.295410 
	C498.691986,564.468933 513.223816,564.871887 527.767700,557.031067 
	C541.341858,549.713013 545.987549,522.541931 527.067322,512.955383 
	C522.212158,510.495361 516.903320,508.888794 511.722931,507.125000 
	C507.009094,505.520050 502.055054,504.562042 497.449554,502.714081 
	C492.945404,500.906830 490.359741,497.332062 490.638428,492.145294 
	C490.907379,487.139954 493.421814,483.756287 497.930054,481.731842 
	C507.625336,477.378204 518.173645,480.865631 523.480713,490.191895 
	C525.878235,494.404999 529.811523,495.156708 533.381714,491.870605 
	C536.776733,488.745636 537.200378,485.044556 534.839661,481.046143 
	C529.245056,471.570526 520.472839,467.625549 509.071503,466.618011 
M810.134399,520.288940 
	C812.922974,510.354187 820.525574,504.667175 829.371765,505.898834 
	C836.670410,506.915009 839.893799,512.329773 839.944641,523.660889 
	C839.947632,524.327393 839.945801,524.993958 839.945374,525.660461 
	C839.939392,535.158325 839.868713,544.656677 839.953552,554.153748 
	C839.997681,559.093140 842.226135,561.214233 846.943970,561.229980 
	C851.520020,561.245239 854.094055,558.919678 854.131653,554.193970 
	C854.235107,541.198914 854.445374,528.195068 854.098694,515.208435 
	C853.672852,499.253876 840.655273,489.030182 825.108643,492.804901 
	C819.821777,494.088531 815.105591,497.722443 809.995728,500.350800 
	C809.995728,491.717896 810.044067,482.448669 809.977173,473.180206 
	C809.938660,467.832916 807.293579,465.016357 802.664734,465.116852 
	C798.076843,465.216461 795.145020,468.197510 795.145325,473.158569 
	C795.147217,499.819092 795.192871,526.479736 795.296204,553.140015 
	C795.317871,558.731934 798.027649,561.506836 802.981079,561.468079 
	C807.492920,561.432861 810.039978,558.544556 810.063354,553.149902 
	C810.109497,542.486328 810.055786,531.822327 810.134399,520.288940 
M418.658691,552.976868 
	C418.662140,542.315735 418.562012,531.653259 418.702240,520.993896 
	C418.811584,512.677185 426.210907,505.782837 434.697937,505.781952 
	C442.664948,505.781097 446.939880,510.439606 447.337158,519.874146 
	C447.547241,524.862671 447.433746,529.865601 447.429016,534.862061 
	C447.422852,541.358215 447.221893,547.858887 447.405945,554.349060 
	C447.536041,558.938171 450.436615,561.668152 454.545654,561.701904 
	C458.784912,561.736755 462.103302,558.653503 462.121521,554.149841 
	C462.174774,540.991577 462.417114,527.817749 461.892151,514.677673 
	C461.273102,499.183350 448.443481,489.391479 433.293976,492.869690 
	C428.327637,494.009918 423.799835,497.060425 418.861511,499.334045 
	C418.808929,498.392059 418.677460,496.985962 418.660675,495.578522 
	C418.567291,487.750214 418.532501,479.921143 418.414917,472.093262 
	C418.345886,467.493927 415.423187,465.389191 411.327393,465.393677 
	C407.245483,465.398163 404.405365,467.591614 404.037079,472.049164 
	C403.941254,473.208984 403.956390,474.379730 403.955536,475.545441 
	C403.936646,501.199677 403.912109,526.853943 403.915497,552.508179 
	C403.916290,558.638000 405.929138,561.234375 410.767548,561.555298 
	C415.183777,561.848267 417.515991,559.569641 418.658691,552.976868 
M309.988403,505.080536 
	C311.980988,505.097687 314.013184,504.866119 315.959229,505.175812 
	C323.683136,506.405029 327.850739,512.260010 326.303040,519.998901 
	C319.270172,519.998901 312.102203,519.489868 305.032806,520.108154 
	C291.618591,521.281433 283.381866,531.281189 284.528320,544.144470 
	C285.590302,556.059875 295.129700,563.221802 308.672974,562.446106 
	C315.791382,562.038391 321.664886,559.054810 326.535065,553.828491 
	C326.995239,554.638245 327.213013,554.903442 327.308441,555.207092 
	C328.866516,560.163452 331.642059,561.958618 336.529785,561.105957 
	C341.156921,560.298706 341.396942,556.832947 341.372833,553.146790 
	C341.336884,547.655701 341.456879,542.163147 341.381226,536.672974 
	C341.278107,529.188049 341.442383,521.670593 340.786713,514.229248 
	C339.872131,503.849945 332.943787,496.310547 322.639740,493.471008 
	C310.867828,490.226990 295.414795,494.040222 289.826660,501.505157 
	C287.726959,504.310028 287.718597,507.112610 289.895081,509.711823 
	C292.243195,512.515930 295.123871,511.957703 298.045258,510.506470 
	C301.721527,508.680267 305.445740,506.950684 309.988403,505.080536 
M611.718445,526.460876 
	C612.827637,532.297241 612.920410,538.572998 615.220581,543.894592 
	C625.613892,567.940002 654.820679,565.851868 666.436584,554.680481 
	C668.956116,552.257385 671.083679,549.693298 667.863159,546.195740 
	C665.055298,543.146240 662.287354,541.643433 658.491272,544.920654 
	C656.643860,546.515564 654.332886,547.743713 652.033936,548.617004 
	C639.078857,553.538025 626.123352,544.821228 626.933411,531.305359 
	C628.519043,531.305359 630.139221,531.313110 631.759338,531.304077 
	C642.909546,531.242126 654.060425,531.078003 665.209534,531.161499 
	C669.606384,531.194397 671.578247,529.157593 671.981934,525.003479 
	C673.322144,511.210602 665.285034,498.072662 652.830444,493.778381 
	C639.198853,489.078308 624.147339,493.789185 617.251648,506.255096 
	C614.092224,511.966614 613.490234,519.092834 611.718445,526.460876 
M748.859924,509.203857 
	C757.673096,503.168091 764.968201,503.953674 772.938660,511.459412 
	C774.209045,512.655701 776.459351,513.587158 778.143127,513.429504 
	C784.272949,512.855347 786.507507,507.063019 782.714966,502.223236 
	C769.629700,485.524689 740.122192,490.013855 731.116394,510.274109 
	C726.168152,521.406250 726.050659,532.965820 730.651978,544.261719 
	C738.658752,563.917480 768.240051,569.015625 782.685181,553.385620 
	C786.487305,549.271667 785.825562,545.661072 780.983276,542.888489 
	C777.170105,540.705200 774.799805,543.117188 772.133728,545.156738 
	C762.838745,552.267273 750.303833,550.536316 745.151978,541.496643 
	C739.769775,532.052795 741.161377,518.013916 748.859924,509.203857 
M375.873444,518.513306 
	C375.873444,514.596252 375.873444,510.679169 375.873444,506.191772 
	C380.322937,506.191772 383.966431,506.198303 387.609924,506.190125 
	C392.037109,506.180176 393.876282,503.546356 393.985565,499.528473 
	C394.097839,495.399384 391.735962,493.490387 387.747742,493.452148 
	C383.978455,493.415955 380.208557,493.444366 375.854706,493.444366 
	C375.854706,490.439636 375.859467,488.149689 375.853394,485.859711 
	C375.847198,483.530762 375.865570,481.200958 375.810425,478.873016 
	C375.710541,474.653046 373.284027,472.502899 369.314972,472.038788 
	C364.751984,471.505249 361.489532,474.369293 361.222656,479.383453 
	C360.979858,483.945221 361.171295,488.530121 361.171295,492.987305 
	C350.365204,494.100769 347.880646,495.396973 348.160858,500.028687 
	C348.685944,508.708191 355.804962,505.667847 360.499023,506.438782 
	C360.714539,507.036804 360.920563,507.343567 360.922241,507.651398 
	C360.985413,519.295105 360.813293,530.944641 361.125427,542.581360 
	C361.645203,561.955322 376.442352,564.269287 388.449280,560.559509 
	C392.439514,559.326538 394.396881,556.224365 393.643616,552.046204 
	C392.834076,547.556091 389.421783,547.586304 385.884277,548.214844 
	C385.558075,548.272766 385.221985,548.274353 384.890656,548.303833 
	C378.074036,548.909241 376.014465,547.154541 375.938477,540.469788 
	C375.859070,533.483337 375.890442,526.495544 375.873444,518.513306 
M713.166016,493.399109 
	C710.240845,493.399109 707.315735,493.399109 703.918213,493.399109 
	C703.918213,488.328888 703.963257,484.033386 703.906494,479.739166 
	C703.838257,474.571472 701.833374,472.190948 697.530579,472.008545 
	C692.906982,471.812531 689.964233,474.617676 689.778564,479.729645 
	C689.618164,484.144531 689.745239,488.569885 689.745239,492.760101 
	C684.293701,494.444458 676.778503,490.533752 676.405823,499.610535 
	C676.205566,504.486237 678.374023,505.560150 689.318604,506.371307 
	C689.393921,508.094452 689.524963,509.886047 689.541992,511.678711 
	C689.643372,522.327576 689.513855,532.983154 689.852417,543.624023 
	C690.309143,557.977051 702.678101,566.030151 716.199219,560.854858 
	C719.841614,559.460632 722.432190,556.733582 721.630798,552.391235 
	C720.847656,548.147827 717.652283,547.577393 713.992065,548.011963 
	C712.840393,548.148743 711.666138,548.103760 710.501892,548.124390 
	C706.638794,548.192810 704.280396,546.004944 704.208984,542.454102 
	C703.968689,530.510437 704.117615,518.558960 704.117615,506.732178 
	C704.728699,506.492859 705.035828,506.272644 705.347534,506.265991 
	C708.174744,506.205719 711.003723,506.219299 713.830200,506.141022 
	C718.979736,505.998413 721.815918,503.544312 721.621094,499.203125 
	C721.405579,494.401031 718.241516,493.163666 713.166016,493.399109 
M564.572021,444.087128 
	C575.680664,432.985352 586.789368,421.883575 598.210205,410.469788 
	C593.779846,406.570740 589.958130,403.207306 586.882141,400.500122 
	C570.227844,417.026672 553.988281,433.141663 537.587280,449.416840 
	C542.693054,449.416840 547.815308,449.117065 552.885193,449.503662 
	C557.668457,449.868378 561.291687,448.396118 564.572021,444.087128 
M595.132141,462.631439 
	C590.789856,467.028748 586.447571,471.426056 581.061768,476.880127 
	C584.748474,476.880127 586.743103,476.601868 588.634521,476.925720 
	C600.063538,478.882690 608.554504,474.588074 615.774170,465.744690 
	C621.291809,458.986145 627.948792,453.157806 634.340881,446.670135 
	C631.271484,443.688263 628.486877,441.302277 626.096191,438.571411 
	C623.667542,435.797058 621.827515,435.787750 619.233459,438.462860 
	C611.477905,446.460510 603.512451,454.254639 595.132141,462.631439 
M604.586487,400.913086 
	C617.307556,413.553802 630.028625,426.194550 642.757629,438.843109 
	C645.895020,436.020203 648.549316,433.631989 650.202393,432.144592 
	C633.883911,415.171478 618.114685,398.769653 602.045837,382.056152 
	C599.085693,384.896515 596.523743,387.354828 593.222412,390.522552 
	C597.200378,394.148987 600.639954,397.284576 604.586487,400.913086 
z"/>
<path fill="#95A1A6" opacity="1.000000" stroke="none" 
	d="
M256.500092,499.334473 
	C255.374542,500.162933 254.201279,501.218445 253.520599,502.529663 
	C246.078308,516.865906 238.884796,531.335388 231.176071,545.525513 
	C229.703583,548.236084 226.597366,550.851440 223.686127,551.805176 
	C219.157303,553.288879 215.954865,550.405029 213.756943,546.281555 
	C205.848114,531.443481 197.808350,516.675232 189.809128,501.885437 
	C189.260834,500.871704 188.639038,499.897736 187.539780,498.041077 
	C187.326660,499.903381 187.115936,500.889099 187.115616,501.874878 
	C187.110092,518.873108 187.139297,535.871277 187.140274,552.869507 
	C187.140610,558.511658 184.933624,561.198547 180.288864,561.318237 
	C175.131714,561.451111 172.219482,558.484680 172.220169,552.815735 
	C172.223328,526.985046 172.299942,501.154419 172.305527,475.323761 
	C172.306549,470.571777 173.458435,466.657654 178.741608,465.469757 
	C183.885162,464.313202 186.824127,467.081909 189.089722,471.283478 
	C199.048325,489.751678 209.078751,508.181183 219.091263,526.620300 
	C220.102783,528.483154 221.169083,530.316345 222.623962,532.897827 
	C228.031097,522.062683 233.012680,511.960266 238.103271,501.913055 
	C243.294815,491.666595 248.527817,481.439911 253.871582,471.272308 
	C256.764069,465.768738 260.266510,464.283417 265.670319,465.669708 
	C271.024170,467.043243 271.799805,471.028168 271.795227,475.703979 
	C271.770050,501.368134 271.831360,527.032349 271.820129,552.696594 
	C271.817627,558.414795 268.398865,561.917664 263.387512,561.417542 
	C258.763550,560.956177 256.834045,558.315613 256.843231,553.670227 
	C256.878906,535.673767 256.749237,517.676941 256.500092,499.334473 
z"/>
<path fill="#359994" opacity="1.000000" stroke="none" 
	d="
M624.349976,359.348297 
	C630.894775,352.295227 637.384583,345.337189 647.617676,346.164917 
	C652.344116,346.547241 657.754822,347.931000 661.357788,350.764740 
	C668.764954,356.590576 675.589722,363.319244 681.870239,370.374176 
	C689.693726,379.162201 689.075562,392.139557 681.294861,400.980469 
	C680.636353,401.728668 679.878784,402.388794 679.201233,403.121277 
	C673.111206,409.704559 667.028748,416.294891 660.474487,423.391724 
	C656.474548,419.606354 653.597107,416.957092 650.801208,414.224487 
	C639.141479,402.828796 627.497253,391.417236 615.865723,379.992706 
	C609.768372,374.003815 609.795044,373.995636 615.682617,368.122833 
	C618.509766,365.302795 621.294067,362.439758 624.349976,359.348297 
z"/>
<path fill="#F7F6F7" opacity="1.000000" stroke="none" 
	d="
M509.509888,466.669495 
	C520.472839,467.625549 529.245056,471.570526 534.839661,481.046143 
	C537.200378,485.044556 536.776733,488.745636 533.381714,491.870605 
	C529.811523,495.156708 525.878235,494.404999 523.480713,490.191895 
	C518.173645,480.865631 507.625336,477.378204 497.930054,481.731842 
	C493.421814,483.756287 490.907379,487.139954 490.638428,492.145294 
	C490.359741,497.332062 492.945404,500.906830 497.449554,502.714081 
	C502.055054,504.562042 507.009094,505.520050 511.722931,507.125000 
	C516.903320,508.888794 522.212158,510.495361 527.067322,512.955383 
	C545.987549,522.541931 541.341858,549.713013 527.767700,557.031067 
	C513.223816,564.871887 498.691986,564.468933 484.497101,556.295410 
	C478.750824,552.986633 475.290741,547.709290 474.549896,540.928894 
	C474.066223,536.502014 476.249817,533.161255 480.321289,532.321411 
	C484.486847,531.462219 486.969604,533.352051 488.108948,537.364502 
	C491.976929,550.986389 512.666809,551.527649 520.121704,544.773438 
	C526.754150,538.764404 525.826416,528.855896 517.766296,524.859253 
	C513.489746,522.738708 508.743622,521.547791 504.177490,520.033752 
	C500.396149,518.779907 496.468933,517.916077 492.778442,516.447205 
	C480.276733,511.471466 474.758392,502.534821 475.921082,489.588837 
	C476.912384,478.551758 485.537231,469.509796 497.640350,467.287628 
	C501.366119,466.603546 505.256500,466.816040 509.509888,466.669495 
z"/>
<path fill="#F7F6F7" opacity="1.000000" stroke="none" 
	d="
M810.088867,520.723755 
	C810.055786,531.822327 810.109497,542.486328 810.063354,553.149902 
	C810.039978,558.544556 807.492920,561.432861 802.981079,561.468079 
	C798.027649,561.506836 795.317871,558.731934 795.296204,553.140015 
	C795.192871,526.479736 795.147217,499.819092 795.145325,473.158569 
	C795.145020,468.197510 798.076843,465.216461 802.664734,465.116852 
	C807.293579,465.016357 809.938660,467.832916 809.977173,473.180206 
	C810.044067,482.448669 809.995728,491.717896 809.995728,500.350800 
	C815.105591,497.722443 819.821777,494.088531 825.108643,492.804901 
	C840.655273,489.030182 853.672852,499.253876 854.098694,515.208435 
	C854.445374,528.195068 854.235107,541.198914 854.131653,554.193970 
	C854.094055,558.919678 851.520020,561.245239 846.943970,561.229980 
	C842.226135,561.214233 839.997681,559.093140 839.953552,554.153748 
	C839.868713,544.656677 839.939392,535.158325 839.945374,525.660461 
	C839.945801,524.993958 839.947632,524.327393 839.944641,523.660889 
	C839.893799,512.329773 836.670410,506.915009 829.371765,505.898834 
	C820.525574,504.667175 812.922974,510.354187 810.088867,520.723755 
z"/>
<path fill="#939FA6" opacity="1.000000" stroke="none" 
	d="
M418.655884,553.413940 
	C417.515991,559.569641 415.183777,561.848267 410.767548,561.555298 
	C405.929138,561.234375 403.916290,558.638000 403.915497,552.508179 
	C403.912109,526.853943 403.936646,501.199677 403.955536,475.545441 
	C403.956390,474.379730 403.941254,473.208984 404.037079,472.049164 
	C404.405365,467.591614 407.245483,465.398163 411.327393,465.393677 
	C415.423187,465.389191 418.345886,467.493927 418.414917,472.093262 
	C418.532501,479.921143 418.567291,487.750214 418.660675,495.578522 
	C418.677460,496.985962 418.808929,498.392059 418.861511,499.334045 
	C423.799835,497.060425 428.327637,494.009918 433.293976,492.869690 
	C448.443481,489.391479 461.273102,499.183350 461.892151,514.677673 
	C462.417114,527.817749 462.174774,540.991577 462.121521,554.149841 
	C462.103302,558.653503 458.784912,561.736755 454.545654,561.701904 
	C450.436615,561.668152 447.536041,558.938171 447.405945,554.349060 
	C447.221893,547.858887 447.422852,541.358215 447.429016,534.862061 
	C447.433746,529.865601 447.547241,524.862671 447.337158,519.874146 
	C446.939880,510.439606 442.664948,505.781097 434.697937,505.781952 
	C426.210907,505.782837 418.811584,512.677185 418.702240,520.993896 
	C418.562012,531.653259 418.662140,542.315735 418.655884,553.413940 
z"/>
<path fill="#F7F6F7" opacity="1.000000" stroke="none" 
	d="
M566.508789,556.306641 
	C564.540527,560.644897 561.056152,562.051758 556.659241,560.942627 
	C552.103821,559.793640 551.950745,556.105469 551.961609,552.214600 
	C552.033813,526.388916 552.029175,500.562775 551.972900,474.736938 
	C551.965149,471.174194 552.557251,468.037079 556.003784,466.278748 
	C561.362610,463.544830 566.703918,467.127930 566.737305,473.604156 
	C566.806946,487.099243 566.723206,500.595184 566.703369,514.090759 
	C566.700806,515.844421 566.703064,517.598083 566.703064,519.574890 
	C574.964355,511.502197 582.964233,503.896362 590.694214,496.025482 
	C593.701416,492.963440 596.749023,492.039581 600.495972,494.005646 
	C604.635071,496.177521 605.401672,499.972412 602.208130,503.403412 
	C597.215332,508.767548 592.132385,514.064392 586.820251,519.108093 
	C583.989685,521.795593 583.524597,523.808838 586.290649,526.914368 
	C592.712646,534.124573 598.804260,541.628357 605.063354,548.984619 
	C609.078979,553.704041 609.267883,556.556396 605.656189,559.615356 
	C602.089661,562.636108 598.045227,562.144592 594.388611,557.820557 
	C587.829773,550.064697 581.464783,542.145020 574.999451,534.309753 
	C574.490662,533.693176 573.831543,533.200623 573.245361,532.653320 
	C568.427856,534.697693 566.187561,537.957214 566.746155,543.167419 
	C567.064148,546.132874 566.811157,549.159546 566.759949,552.937866 
	C566.639343,554.580261 566.574036,555.443420 566.508789,556.306641 
z"/>
<path fill="#95A0A6" opacity="1.000000" stroke="none" 
	d="
M309.568848,505.129974 
	C305.445740,506.950684 301.721527,508.680267 298.045258,510.506470 
	C295.123871,511.957703 292.243195,512.515930 289.895081,509.711823 
	C287.718597,507.112610 287.726959,504.310028 289.826660,501.505157 
	C295.414795,494.040222 310.867828,490.226990 322.639740,493.471008 
	C332.943787,496.310547 339.872131,503.849945 340.786713,514.229248 
	C341.442383,521.670593 341.278107,529.188049 341.381226,536.672974 
	C341.456879,542.163147 341.336884,547.655701 341.372833,553.146790 
	C341.396942,556.832947 341.156921,560.298706 336.529785,561.105957 
	C331.642059,561.958618 328.866516,560.163452 327.308441,555.207092 
	C327.213013,554.903442 326.995239,554.638245 326.535065,553.828491 
	C321.664886,559.054810 315.791382,562.038391 308.672974,562.446106 
	C295.129700,563.221802 285.590302,556.059875 284.528320,544.144470 
	C283.381866,531.281189 291.618591,521.281433 305.032806,520.108154 
	C312.102203,519.489868 319.270172,519.998901 326.303040,519.998901 
	C327.850739,512.260010 323.683136,506.405029 315.959229,505.175812 
	C314.013184,504.866119 311.980988,505.097687 309.568848,505.129974 
M298.920319,540.615967 
	C299.476959,546.934692 301.465088,549.225586 307.409637,550.398193 
	C319.551819,552.793335 329.155975,542.816040 326.407806,530.448059 
	C320.701111,530.448059 314.897980,529.956360 309.221283,530.592896 
	C304.034302,531.174500 299.824951,533.898682 298.920319,540.615967 
z"/>
<path fill="#F7F6F7" opacity="1.000000" stroke="none" 
	d="
M611.723389,526.019165 
	C613.490234,519.092834 614.092224,511.966614 617.251648,506.255096 
	C624.147339,493.789185 639.198853,489.078308 652.830444,493.778381 
	C665.285034,498.072662 673.322144,511.210602 671.981934,525.003479 
	C671.578247,529.157593 669.606384,531.194397 665.209534,531.161499 
	C654.060425,531.078003 642.909546,531.242126 631.759338,531.304077 
	C630.139221,531.313110 628.519043,531.305359 626.933411,531.305359 
	C626.123352,544.821228 639.078857,553.538025 652.033936,548.617004 
	C654.332886,547.743713 656.643860,546.515564 658.491272,544.920654 
	C662.287354,541.643433 665.055298,543.146240 667.863159,546.195740 
	C671.083679,549.693298 668.956116,552.257385 666.436584,554.680481 
	C654.820679,565.851868 625.613892,567.940002 615.220581,543.894592 
	C612.920410,538.572998 612.827637,532.297241 611.723389,526.019165 
M650.432007,520.337097 
	C652.896423,520.337097 655.360840,520.337097 657.853333,520.337097 
	C657.284363,510.509338 650.735718,504.486816 641.515564,504.771576 
	C633.176514,505.029144 627.024231,511.460083 627.076538,520.300232 
	C634.529419,520.300232 641.991394,520.300232 650.432007,520.337097 
z"/>
<path fill="#F7F9F9" opacity="1.000000" stroke="none" 
	d="
M381.818420,605.033386 
	C381.339081,612.098267 380.859711,619.163086 380.340729,626.812073 
	C387.014252,626.249023 393.233673,625.627930 399.468414,625.290833 
	C400.537811,625.232910 401.672699,626.385071 402.433960,627.645630 
	C400.953796,632.202942 399.816956,636.092834 398.631317,640.149719 
	C404.756287,640.477356 410.181274,640.767578 415.606262,641.057739 
	C413.377380,642.973572 411.428986,645.467468 408.872375,646.707947 
	C395.921021,652.991760 382.811707,658.950012 369.242065,664.770386 
	C363.497437,656.343384 357.775238,648.727173 347.741180,645.996094 
	C353.240417,630.417419 358.739624,614.838684 364.849792,599.301025 
	C370.913330,601.239075 376.365875,603.136230 381.818420,605.033386 
z"/>
<path fill="#F7F6F7" opacity="1.000000" stroke="none" 
	d="
M748.580750,509.463196 
	C741.161377,518.013916 739.769775,532.052795 745.151978,541.496643 
	C750.303833,550.536316 762.838745,552.267273 772.133728,545.156738 
	C774.799805,543.117188 777.170105,540.705200 780.983276,542.888489 
	C785.825562,545.661072 786.487305,549.271667 782.685181,553.385620 
	C768.240051,569.015625 738.658752,563.917480 730.651978,544.261719 
	C726.050659,532.965820 726.168152,521.406250 731.116394,510.274109 
	C740.122192,490.013855 769.629700,485.524689 782.714966,502.223236 
	C786.507507,507.063019 784.272949,512.855347 778.143127,513.429504 
	C776.459351,513.587158 774.209045,512.655701 772.938660,511.459412 
	C764.968201,503.953674 757.673096,503.168091 748.580750,509.463196 
z"/>
<path fill="#939FA6" opacity="1.000000" stroke="none" 
	d="
M375.873413,519.010864 
	C375.890442,526.495544 375.859070,533.483337 375.938477,540.469788 
	C376.014465,547.154541 378.074036,548.909241 384.890656,548.303833 
	C385.221985,548.274353 385.558075,548.272766 385.884277,548.214844 
	C389.421783,547.586304 392.834076,547.556091 393.643616,552.046204 
	C394.396881,556.224365 392.439514,559.326538 388.449280,560.559509 
	C376.442352,564.269287 361.645203,561.955322 361.125427,542.581360 
	C360.813293,530.944641 360.985413,519.295105 360.922241,507.651398 
	C360.920563,507.343567 360.714539,507.036804 360.499023,506.438782 
	C355.804962,505.667847 348.685944,508.708191 348.160858,500.028687 
	C347.880646,495.396973 350.365204,494.100769 361.171295,492.987305 
	C361.171295,488.530121 360.979858,483.945221 361.222656,479.383453 
	C361.489532,474.369293 364.751984,471.505249 369.314972,472.038788 
	C373.284027,472.502899 375.710541,474.653046 375.810425,478.873016 
	C375.865570,481.200958 375.847198,483.530762 375.853394,485.859711 
	C375.859467,488.149689 375.854706,490.439636 375.854706,493.444366 
	C380.208557,493.444366 383.978455,493.415955 387.747742,493.452148 
	C391.735962,493.490387 394.097839,495.399384 393.985565,499.528473 
	C393.876282,503.546356 392.037109,506.180176 387.609924,506.190125 
	C383.966431,506.198303 380.322937,506.191772 375.873444,506.191772 
	C375.873444,510.679169 375.873444,514.596252 375.873413,519.010864 
z"/>
<path fill="#F7F6F7" opacity="1.000000" stroke="none" 
	d="
M713.613525,493.381470 
	C718.241516,493.163666 721.405579,494.401031 721.621094,499.203125 
	C721.815918,503.544312 718.979736,505.998413 713.830200,506.141022 
	C711.003723,506.219299 708.174744,506.205719 705.347534,506.265991 
	C705.035828,506.272644 704.728699,506.492859 704.117615,506.732178 
	C704.117615,518.558960 703.968689,530.510437 704.208984,542.454102 
	C704.280396,546.004944 706.638794,548.192810 710.501892,548.124390 
	C711.666138,548.103760 712.840393,548.148743 713.992065,548.011963 
	C717.652283,547.577393 720.847656,548.147827 721.630798,552.391235 
	C722.432190,556.733582 719.841614,559.460632 716.199219,560.854858 
	C702.678101,566.030151 690.309143,557.977051 689.852417,543.624023 
	C689.513855,532.983154 689.643372,522.327576 689.541992,511.678711 
	C689.524963,509.886047 689.393921,508.094452 689.318604,506.371307 
	C678.374023,505.560150 676.205566,504.486237 676.405823,499.610535 
	C676.778503,490.533752 684.293701,494.444458 689.745239,492.760101 
	C689.745239,488.569885 689.618164,484.144531 689.778564,479.729645 
	C689.964233,474.617676 692.906982,471.812531 697.530579,472.008545 
	C701.833374,472.190948 703.838257,474.571472 703.906494,479.739166 
	C703.963257,484.033386 703.918213,488.328888 703.918213,493.399109 
	C707.315735,493.399109 710.240845,493.399109 713.613525,493.381470 
z"/>
<path fill="#53817F" opacity="1.000000" stroke="none" 
	d="
M566.923218,556.299927 
	C566.574036,555.443420 566.639343,554.580261 566.809631,553.408813 
	C568.165771,553.793701 569.672241,554.236755 570.630859,555.216125 
	C601.612854,586.869507 632.517761,618.598450 663.494995,650.256470 
	C672.108154,659.058960 680.923645,667.663269 689.616516,676.388245 
	C690.864258,677.640625 691.943054,679.061279 694.023193,681.475464 
	C583.998474,681.475464 475.311737,681.475464 366.625031,681.475464 
	C366.584625,681.128296 366.544220,680.781189 366.503815,680.434021 
	C368.315826,680.296143 370.127716,680.039185 371.939819,680.037964 
	C414.928650,680.009216 457.917542,680.037842 500.905975,679.903503 
	C502.829956,679.897522 504.749512,678.456665 507.135681,677.336060 
	C507.968994,676.966431 508.337708,676.944885 508.706421,676.923401 
	C508.919800,680.391724 511.428680,679.991394 513.775879,679.988098 
	C528.438843,679.967529 543.101746,679.975891 557.764709,679.974243 
	C598.087708,679.969666 638.410706,679.964905 678.733704,679.960266 
	C680.983704,679.960022 683.233643,679.960266 685.603455,679.289062 
	C628.489685,645.536499 571.057190,612.813660 514.048828,579.373169 
	C514.392029,578.782471 514.735229,578.191833 515.078430,577.601135 
	C569.122070,608.679810 623.165771,639.758484 677.209412,670.837158 
	C677.595764,670.310303 677.982056,669.783508 678.368408,669.256714 
	C677.498657,668.173523 676.713623,667.007568 675.746887,666.019226 
	C643.955078,633.515747 612.164734,601.010803 580.316467,568.562744 
	C576.149170,564.316956 571.671570,560.375610 566.923218,556.299927 
z"/>
<path fill="#3B9B95" opacity="1.000000" stroke="none" 
	d="
M415.918457,641.023682 
	C410.181274,640.767578 404.756287,640.477356 398.631317,640.149719 
	C399.816956,636.092834 400.953796,632.202942 402.352753,628.063354 
	C403.646393,627.553223 405.005981,627.626892 405.661285,626.983337 
	C420.278229,612.629761 434.958374,598.334961 449.278961,583.689148 
	C453.180847,579.698669 456.986542,577.335571 462.718811,577.883972 
	C467.435699,578.335205 472.230133,577.976013 476.990204,577.976013 
	C477.244080,578.408936 477.497925,578.841858 477.751801,579.274719 
	C457.244751,599.846375 436.737701,620.418030 415.918457,641.023682 
z"/>
<path fill="#53817F" opacity="1.000000" stroke="none" 
	d="
M334.651917,353.108887 
	C334.502228,351.342133 334.352539,349.575378 334.152435,347.213257 
	C336.013641,347.637329 337.282562,347.787811 338.451630,348.212769 
	C384.298004,364.880035 430.134033,381.575806 475.974823,398.258514 
	C485.674255,401.788361 495.421936,405.190674 505.056793,408.887756 
	C506.573151,409.469666 508.667419,411.287506 508.697021,412.575165 
	C508.972412,424.562592 508.863403,436.559082 508.822601,448.552795 
	C508.820648,449.124207 508.412720,449.694244 508.193848,450.264893 
	C507.688263,450.259338 507.182709,450.253784 506.677124,450.248199 
	C506.677124,439.312866 506.677124,428.377502 506.677124,417.442139 
	C506.059509,417.314697 505.441895,417.187225 504.824280,417.059753 
	C497.024780,429.324493 489.225281,441.589203 481.425781,453.853943 
	C481.015442,453.621490 480.605072,453.389008 480.194733,453.156555 
	C480.541962,452.185486 480.730103,451.116058 481.260468,450.258209 
	C488.176636,439.072021 495.118042,427.901245 502.104584,416.758820 
	C505.155060,411.893799 504.973328,411.143982 499.345886,409.104858 
	C471.484528,399.009430 443.598145,388.983093 415.743958,378.867981 
	C392.898804,370.571960 370.088867,362.178955 347.253235,353.856689 
	C345.968994,353.388702 344.592804,353.173126 343.259399,352.840057 
	C342.941864,353.300598 342.624359,353.761169 342.306824,354.221710 
	C381.075470,395.148041 419.844116,436.074341 458.612732,477.000671 
	C458.242798,477.405457 457.872833,477.810211 457.502869,478.214996 
	C453.671478,474.594116 449.662415,471.141968 446.037323,467.325165 
	C421.161530,441.134216 396.351807,414.880463 371.551880,388.617584 
	C361.608887,378.088043 351.771484,367.458679 341.813782,356.943207 
	C340.378906,355.427979 338.536865,354.298340 336.278381,353.023651 
	C335.332947,353.074310 334.992432,353.091614 334.651917,353.108887 
z"/>
<path fill="#399993" opacity="1.000000" stroke="none" 
	d="
M564.320679,444.339172 
	C561.291687,448.396118 557.668457,449.868378 552.885193,449.503662 
	C547.815308,449.117065 542.693054,449.416840 537.587280,449.416840 
	C553.988281,433.141663 570.227844,417.026672 586.882141,400.500122 
	C589.958130,403.207306 593.779846,406.570740 598.210205,410.469788 
	C586.789368,421.883575 575.680664,432.985352 564.320679,444.339172 
z"/>
<path fill="#3C9791" opacity="1.000000" stroke="none" 
	d="
M595.380554,462.379822 
	C603.512451,454.254639 611.477905,446.460510 619.233459,438.462860 
	C621.827515,435.787750 623.667542,435.797058 626.096191,438.571411 
	C628.486877,441.302277 631.271484,443.688263 634.340881,446.670135 
	C627.948792,453.157806 621.291809,458.986145 615.774170,465.744690 
	C608.554504,474.588074 600.063538,478.882690 588.634521,476.925720 
	C586.743103,476.601868 584.748474,476.880127 581.061768,476.880127 
	C586.447571,471.426056 590.789856,467.028748 595.380554,462.379822 
z"/>
<path fill="#3C9791" opacity="1.000000" stroke="none" 
	d="
M604.333008,400.666626 
	C600.639954,397.284576 597.200378,394.148987 593.222412,390.522552 
	C596.523743,387.354828 599.085693,384.896515 602.045837,382.056152 
	C618.114685,398.769653 633.883911,415.171478 650.202393,432.144592 
	C648.549316,433.631989 645.895020,436.020203 642.757629,438.843109 
	C630.028625,426.194550 617.307556,413.553802 604.333008,400.666626 
z"/>
<path fill="#3C9791" opacity="1.000000" stroke="none" 
	d="
M347.462555,646.182617 
	C357.775238,648.727173 363.497437,656.343384 368.871613,664.835693 
	C358.001740,670.479980 346.986633,675.807129 334.816376,681.692871 
	C334.563232,678.188477 334.405365,676.002869 334.579437,673.330688 
	C335.243011,672.299500 335.574615,671.754822 335.906189,671.210144 
	C336.994751,670.084656 338.554199,669.147827 339.093170,667.802185 
	C341.932007,660.714722 344.513245,653.523987 347.462555,646.182617 
z"/>
<path fill="#3B9B95" opacity="1.000000" stroke="none" 
	d="
M382.143433,604.920654 
	C376.365875,603.136230 370.913330,601.239075 365.150696,599.130371 
	C370.808380,592.283936 376.737640,585.613464 382.799377,579.065735 
	C383.453583,578.359070 384.872925,578.094604 385.942749,578.081970 
	C393.047577,577.997925 400.153870,578.038391 408.045502,579.150574 
	C399.519806,587.703064 390.994110,596.255554 382.143433,604.920654 
z"/>
<path fill="#63979B" opacity="1.000000" stroke="none" 
	d="
M334.554443,353.560669 
	C334.992432,353.091614 335.332947,353.074310 335.930969,353.062683 
	C336.198547,355.375916 336.208618,357.683441 336.098511,360.845062 
	C336.016724,362.836945 336.055145,363.974792 336.093567,365.112610 
	C336.128571,367.404480 336.163574,369.696381 336.125000,372.747162 
	C336.076843,373.726410 336.102295,373.946747 336.127716,374.167084 
	C336.156403,374.834564 336.185089,375.502014 336.100800,376.980652 
	C336.022675,406.569397 336.057526,435.347046 336.092377,464.124664 
	C336.109589,466.454895 336.126801,468.785126 335.842285,471.549194 
	C335.190521,471.948944 334.840515,471.914825 334.490509,471.880737 
	C334.445221,440.249329 334.391357,408.617950 334.360779,376.986542 
	C334.353394,369.328552 334.422852,361.670471 334.554443,353.560669 
z"/>
<path fill="#63979B" opacity="1.000000" stroke="none" 
	d="
M335.964783,670.785583 
	C335.574615,671.754822 335.243011,672.299500 334.667480,672.921143 
	C334.523529,641.954529 334.621460,610.911072 334.743500,579.867615 
	C334.745209,579.432190 335.049225,578.997925 335.566864,577.616211 
	C335.931305,579.312561 336.107635,580.133240 336.186859,581.705139 
	C336.097321,582.703491 336.104919,582.950684 336.112549,583.197876 
	C336.145721,586.109619 336.178864,589.021362 336.109741,592.850586 
	C336.033813,598.902344 336.060181,604.036560 336.086548,609.170776 
	C336.118866,610.162720 336.151184,611.154602 336.088379,612.993103 
	C335.998718,628.563782 336.004242,643.287964 336.009766,658.012085 
	C336.041626,658.451660 336.073486,658.891296 336.039001,660.095215 
	C335.980743,662.890442 335.988800,664.921204 335.996887,666.952026 
	C336.005676,668.088379 336.014496,669.224670 335.964783,670.785583 
z"/>
<path fill="#63979B" opacity="1.000000" stroke="none" 
	d="
M508.602661,585.103943 
	C508.648529,614.064575 508.694397,643.025146 508.405579,672.468811 
	C507.696075,672.973511 507.321320,672.995178 506.946533,673.016785 
	C506.932159,643.990540 506.917755,614.964233 507.207764,585.476074 
	C507.875702,585.044067 508.239166,585.073975 508.602661,585.103943 
z"/>
<path fill="#53817F" opacity="1.000000" stroke="none" 
	d="
M336.264801,463.746765 
	C336.057526,435.347046 336.022675,406.569397 336.055023,377.312225 
	C336.316589,377.963104 336.679596,379.093384 336.680603,380.223999 
	C336.704865,407.282135 336.692047,434.340271 336.672546,461.398438 
	C336.672089,462.055328 336.519073,462.712067 336.264801,463.746765 
z"/>
<path fill="#3C9791" opacity="1.000000" stroke="none" 
	d="
M336.144165,657.631470 
	C336.004242,643.287964 335.998718,628.563782 336.028320,613.361389 
	C336.135101,627.672363 336.206818,642.461670 336.144165,657.631470 
z"/>
<path fill="#3C9791" opacity="1.000000" stroke="none" 
	d="
M336.246155,608.784424 
	C336.060181,604.036560 336.033813,598.902344 336.046997,593.282837 
	C336.192932,597.997681 336.299347,603.197876 336.246155,608.784424 
z"/>
<path fill="#53817F" opacity="1.000000" stroke="none" 
	d="
M334.378082,472.242249 
	C334.840515,471.914825 335.190521,471.948944 335.804749,471.985596 
	C336.132019,473.404785 336.195068,474.821472 336.258118,476.238159 
	C335.698975,476.260223 335.139832,476.282288 334.580688,476.304321 
	C334.475677,475.070801 334.370667,473.837280 334.378082,472.242249 
z"/>
<path fill="#53817F" opacity="1.000000" stroke="none" 
	d="
M508.687378,584.760925 
	C508.239166,585.073975 507.875702,585.044067 507.238342,585.008301 
	C507.154449,584.063904 507.344452,583.125244 507.534424,582.186584 
	C507.946991,582.930359 508.359558,583.674133 508.687378,584.760925 
z"/>
<path fill="#3C9791" opacity="1.000000" stroke="none" 
	d="
M336.134766,666.629761 
	C335.988800,664.921204 335.980743,662.890442 335.995300,660.423706 
	C336.102814,662.094360 336.187744,664.200989 336.134766,666.629761 
z"/>
<path fill="#63979B" opacity="1.000000" stroke="none" 
	d="
M508.749390,676.603271 
	C508.337708,676.944885 507.968994,676.966431 507.322998,676.995239 
	C507.005981,676.250122 506.966217,675.497742 507.175537,674.465210 
	C507.824310,674.458496 508.223938,674.731934 508.623596,675.005371 
	C508.679840,675.431274 508.736084,675.857239 508.749390,676.603271 
z"/>
<path fill="#53817F" opacity="1.000000" stroke="none" 
	d="
M336.258759,364.837769 
	C336.055145,363.974792 336.016724,362.836945 336.047058,361.275085 
	C336.218536,362.088348 336.321228,363.325623 336.258759,364.837769 
z"/>
<path fill="#53817F" opacity="1.000000" stroke="none" 
	d="
M508.711273,674.658569 
	C508.223938,674.731934 507.824310,674.458496 507.201691,674.088745 
	C506.978729,673.992371 506.870483,673.507629 506.908508,673.262207 
	C507.321320,672.995178 507.696075,672.973511 508.350891,672.927612 
	C508.686951,673.372864 508.742950,673.842346 508.711273,674.658569 
z"/>
<path fill="#53817F" opacity="1.000000" stroke="none" 
	d="
M336.246643,374.019653 
	C336.102295,373.946747 336.076843,373.726410 336.085876,373.174622 
	C336.202118,373.186188 336.283844,373.529175 336.246643,374.019653 
z"/>
<path fill="#3C9791" opacity="1.000000" stroke="none" 
	d="
M336.224060,583.030640 
	C336.104919,582.950684 336.097321,582.703491 336.130127,582.085938 
	C336.225494,582.098145 336.280518,582.480774 336.224060,583.030640 
z"/>
<path fill="#222329" opacity="1.000000" stroke="none" 
	d="
M298.934570,540.210327 
	C299.824951,533.898682 304.034302,531.174500 309.221283,530.592896 
	C314.897980,529.956360 320.701111,530.448059 326.407806,530.448059 
	C329.155975,542.816040 319.551819,552.793335 307.409637,550.398193 
	C301.465088,549.225586 299.476959,546.934692 298.934570,540.210327 
z"/>
<path fill="#222329" opacity="1.000000" stroke="none" 
	d="
M649.942688,520.318665 
	C641.991394,520.300232 634.529419,520.300232 627.076538,520.300232 
	C627.024231,511.460083 633.176514,505.029144 641.515564,504.771576 
	C650.735718,504.486816 657.284363,510.509338 657.853333,520.337097 
	C655.360840,520.337097 652.896423,520.337097 649.942688,520.318665 
z"/>
</svg>